<svg height="512" viewBox="0 0 512 512" width="512" xmlns="http://www.w3.org/2000/svg"><g fill="#4b4b4b"><path d="m389.486 226.898h-266.971c-67.663 0-122.515 54.848-122.515 122.515 0 67.659 54.852 122.514 122.515 122.514 42.645 0 80.192-21.812 102.128-54.855h62.711c21.94 33.043 59.491 54.855 102.132 54.855 67.667 0 122.514-54.855 122.514-122.514 0-67.667-54.847-122.515-122.514-122.515zm-213.331 137.154h-37.794v37.778h-32.916v-37.778h-37.786v-32.928h37.786v-37.786h32.916v37.786h37.794zm182.34-.278c-7.929 7.929-20.783 7.929-28.716 0-7.936-7.929-7.936-20.794 0-28.723 7.933-7.929 20.787-7.929 28.716-.008 7.929 7.937 7.929 20.803 0 28.731zm45.345 45.353c-7.921 7.921-20.779 7.921-28.715-.008-7.937-7.929-7.937-20.786 0-28.715 7.936-7.929 20.794-7.945 28.715-.016 7.937 7.945 7.937 20.802 0 28.739zm0-90.705c-7.921 7.929-20.779 7.929-28.715 0-7.922-7.929-7.937-20.794 0-28.723 7.936-7.929 20.794-7.929 28.715 0 7.937 7.928 7.937 20.794 0 28.723zm45.353 45.352c-7.921 7.929-20.786 7.929-28.724 0-7.937-7.929-7.937-20.794 0-28.723s20.802-7.929 28.724 0c7.929 7.929 7.929 20.795 0 28.723z"/><path d="m268.928 110.894c0-2.46.49-4.72 1.361-6.802 1.319-3.116 3.548-5.8 6.337-7.69 2.8-1.89 6.09-2.97 9.753-2.97 2.441 0 4.709.494 6.792 1.373 3.112 1.311 5.804 3.533 7.69 6.333 1.882 2.8 2.97 6.086 2.97 9.756 0 5.893 1.207 11.593 3.39 16.753 3.282 7.744 8.724 14.293 15.588 18.928 6.849 4.644 15.206 7.374 24.076 7.366 5.912 0 11.612-1.211 16.764-3.394 7.728-3.278 14.285-8.716 18.92-15.58 4.644-6.857 7.367-15.21 7.367-24.073v-70.821h-25.608v70.821c0 2.438-.478 4.705-1.358 6.78-1.319 3.124-3.556 5.808-6.333 7.69-2.807 1.881-6.093 2.969-9.753 2.969-2.437 0-4.705-.486-6.784-1.365-3.12-1.311-5.804-3.548-7.69-6.333-1.886-2.8-2.97-6.1-2.986-9.742.016-5.924-1.192-11.616-3.378-16.768-3.282-7.744-8.72-14.292-15.585-18.928-6.864-4.651-15.209-7.374-24.084-7.366-5.908-.008-11.604 1.203-16.764 3.394-7.74 3.263-14.292 8.716-18.932 15.58-4.639 6.857-7.358 15.21-7.358 24.088v104.712h25.603v-104.711z"/></g></svg>