<svg height="256" viewBox="0 0 512 512" width="256" xmlns="http://www.w3.org/2000/svg"><g fill="#4b4b4b"><path d="m359.244 224.004h-59.988c-6.217 0-11.258-5.043-11.258-11.258v-59.992c0-6.215-5.039-11.254-11.256-11.254h-41.486c-6.217 0-11.258 5.039-11.258 11.254v59.992c0 6.215-5.039 11.258-11.256 11.258h-59.988c-6.219 0-11.258 5.039-11.258 11.258v41.484c0 6.215 5.039 11.258 11.258 11.258h59.988c6.217 0 11.256 5.039 11.256 11.258v59.984c0 6.219 5.041 11.258 11.258 11.258h41.486c6.217 0 11.256-5.039 11.256-11.258v-59.984c0-6.219 5.041-11.258 11.258-11.258h59.988c6.217 0 11.258-5.043 11.258-11.258v-41.484c0-6.219-5.041-11.258-11.258-11.258z"/><path d="m256 0c-141.387 0-256 114.617-256 256 0 141.387 114.613 256 256 256 141.383 0 256-114.613 256-256 0-141.383-114.617-256-256-256zm0 448c-105.871 0-192-86.129-192-192 0-105.867 86.129-192 192-192 105.867 0 192 86.133 192 192 0 105.871-86.133 192-192 192z"/></g></svg>