<svg height="256" viewBox="0 0 512 512" width="256" xmlns="http://www.w3.org/2000/svg"><g fill="#4b4b4b"><path d="m238.301 346.393c.598 3.938 2.563 7.725 5.903 11.359 3.313 3.626 7.252 5.447 11.796 5.447 10.592 0 16.486-5.608 17.691-16.806l35.398-271.98c.607-4.823.911-11.636.911-20.415 0-13.618-4.679-26.013-14.065-37.22-9.377-11.188-22.691-16.778-39.936-16.778-17.868 0-31.317 5.742-40.389 17.226-9.073 11.206-13.61 23.459-13.61 36.773 0 8.172.285 14.976.892 20.415z"/><path d="m295.033 418.065c-10.288-10.287-23.307-15.44-39.034-15.44-15.422 0-28.441 5.314-39.032 15.896-10.591 10.591-15.877 23.441-15.877 38.569 0 14.52 5.286 27.379 15.877 38.577 10.591 10.895 23.611 16.333 39.032 16.333 15.423 0 28.424-5.286 39.034-15.886 10.574-10.574 15.877-23.593 15.877-39.024 0-15.432-5.303-28.434-15.877-39.025z"/></g></svg>