<svg enable-background="new 0 0 45.532 45.532" height="45.532" viewBox="0 0 45.532 45.532" width="45.532" xmlns="http://www.w3.org/2000/svg"><path d="m22.766.001c-12.572 0-22.766 10.192-22.766 22.765s10.193 22.765 22.766 22.765c12.574 0 22.766-10.192 22.766-22.765s-10.192-22.765-22.766-22.765zm0 6.807c4.16 0 7.531 3.372 7.531 7.53 0 4.159-3.371 7.53-7.531 7.53-4.158 0-7.529-3.371-7.529-7.53 0-4.158 3.371-7.53 7.529-7.53zm-.005 32.771c-4.149 0-7.949-1.511-10.88-4.012-.714-.609-1.126-1.502-1.126-2.439 0-4.217 3.413-7.592 7.631-7.592h8.762c4.219 0 7.619 3.375 7.619 7.592 0 .938-.41 1.829-1.125 2.438-2.93 2.502-6.731 4.013-10.881 4.013z"/></svg>