<svg height="256" viewBox="0 0 512 512" width="256" xmlns="http://www.w3.org/2000/svg"><g fill="#4b4b4b"><path d="m243.637 92.96c-57.79 0-110.304 23.484-148.156 61.38-37.876 37.842-61.381 90.355-61.37 148.135-.011 57.801 23.495 110.315 61.371 148.155 37.852 37.876 90.366 61.381 148.156 61.37 57.78.012 110.293-23.494 148.145-61.37 37.886-37.84 61.37-90.354 61.358-148.156.012-57.78-23.472-110.293-61.358-148.135-37.853-37.895-90.366-61.379-148.146-61.379zm119.663 329.2c-30.695 30.652-72.864 49.55-119.663 49.56-46.798-.01-88.989-18.909-119.685-49.56-30.652-30.695-49.55-72.887-49.56-119.685.01-46.798 18.909-88.978 49.56-119.675 30.696-30.652 72.887-49.55 119.685-49.572 46.8.022 88.968 18.92 119.663 49.572 30.652 30.696 49.562 72.876 49.572 119.675-.01 46.798-18.92 88.99-49.572 119.685z"/><path d="m184.449 0h118.355v55.241h-118.355z"/><path d="m477.888 133.664-61.001-61.011-31.389 31.389 61.011 61.012z"/><path d="m193.786 286.831c-3.589 0-6.988.604-8.398 1.207l-.392-.392 28.772-52.568c.604-1.207.213-2.002-1.397-2.002h-25.372c-1.41 0-1.802.19-2.405 1.398l-32.977 60.363c-6.408 11.585-10.008 21.984-10.008 33.581 0 26.782 19.603 42.772 45.58 42.772 25.786 0 45.568-15.99 45.568-43.376 0-24.97-17.579-40.983-38.971-40.983zm-6.597 60.765c-10.982 0-17.982-7.783-17.982-18.786 0-11.183 7.001-18.988 17.982-18.988 11.003 0 17.992 7.805 17.992 18.988 0 11.003-6.989 18.786-17.992 18.786z"/><path d="m290.346 230.873c-21.391 0-35.38 10.4-40.984 27.778-2.002 6.005-2.996 12.2-2.996 42.382 0 30.181.995 36.388 2.996 42.37 5.603 17.388 19.592 27.788 40.984 27.788 21.381 0 35.371-10.4 40.974-27.788 2.002-5.983 3.008-12.189 3.008-42.37 0-30.182-1.006-36.377-3.008-42.382-5.603-17.379-19.593-27.778-40.974-27.778zm13.8 107.531c-2.002 6.206-6.798 9.191-13.8 9.191-7.19 0-11.796-2.985-13.798-9.191-1.197-3.59-1.588-7.593-1.588-37.372 0-29.79.392-33.771 1.588-37.372 2.002-6.195 6.608-9.203 13.798-9.203 7.001 0 11.798 3.008 13.8 9.203 1.197 3.601 1.588 7.582 1.588 37.372 0 29.779-.392 33.782-1.588 37.372z"/></g></svg>